<svg xmlns="http://www.w3.org/2000/svg" viewBox="0 0 24 24"><path fill="#8CC03E" d="M9.413 21.027c-.615.356-.732.4-1.311.604-.14.048-.352.133.081.381l2.899 1.738c.276.163.597.248.911.248l.002.002c.32 0 .634-.086.912-.248l8.682-5.076c.563-.334.911-.948.911-1.606V6.922c0-.662-.347-1.276-.911-1.604L12.907.236a1.89 1.89 0 0 0-1.824 0L2.411 5.313A1.86 1.86 0 0 0 1.5 6.917v10.149c0 .662.347 1.276.911 1.604l2.275 1.329c1.101.552 1.495.552 1.997.552 1.631 0 2.571-1 2.571-2.743V7.785A.253.253 0 0 0 9 7.533H7.901a.25.25 0 0 0-.254.252v10.018c0 .776-.79 1.543-2.082.891l-2.379-1.39a.27.27 0 0 1-.136-.234V6.922c0-.098.053-.194.136-.242l8.672-5.077h.267l8.677 5.072a.28.28 0 0 1 .136.242V17.07a.28.28 0 0 1-.131.237l-8.682 5.077h-.267L9.63 21.047z"/><path fill="#7AA736" d="M9.413 21.027c-.615.356-.732.4-1.311.604-.14.048-.352.133.081.381l2.899 1.738c.276.163.597.248.911.248l.002.002H12v-1.615h-.142L9.63 21.047zM11.997 0c-.319 0-.639.078-.914.235L2.411 5.313A1.86 1.86 0 0 0 1.5 6.917v10.149c0 .662.347 1.276.911 1.604l2.275 1.329c1.101.552 1.495.552 1.997.552 1.631 0 2.571-1 2.571-2.743V7.785A.253.253 0 0 0 9 7.533H7.901a.25.25 0 0 0-.254.252v10.018c0 .571-.427 1.137-1.167 1.137-.266 0-.573-.073-.915-.246l-2.379-1.39a.27.27 0 0 1-.136-.234V6.922c0-.098.053-.194.136-.242l8.672-5.077H12V0z"/><path fill="#8CC03E" d="M14.674 15.47c-2.299 0-2.802-.587-2.97-1.744a.25.25 0 0 0-.249-.214h-1.123a.25.25 0 0 0-.249.252c0 1.482.795 3.248 4.597 3.248 2.744-.006 4.325-1.105 4.325-3.02l-.003.001c0-1.9-1.269-2.404-3.935-2.763-2.698-.361-2.97-.547-2.97-1.186 0-.528.231-1.233 2.229-1.233 1.781 0 2.44.391 2.712 1.609.023.115.128.2.245.2h1.128l.184-.081.065-.195c-.173-2.1-1.551-3.076-4.333-3.076-2.476 0-3.953 1.058-3.953 2.834 0 1.924 1.471 2.457 3.845 2.694 2.844.282 3.064.706 3.064 1.273 0 .982-.78 1.401-2.609 1.401"/><path fill="#7AA736" d="M11.455 13.512h-1.123a.25.25 0 0 0-.249.252c0 1.464.776 3.206 4.461 3.247v-1.542c-2.188-.022-2.675-.609-2.84-1.744a.25.25 0 0 0-.249-.213m2.872-6.243c-2.476 0-3.953 1.058-3.953 2.834 0 1.924 1.471 2.457 3.845 2.694q.169.016.325.034v-1.673c-2.211-.317-2.446-.519-2.446-1.113 0-.528.231-1.233 2.229-1.233l.218.002V7.271q-.108-.002-.218-.002"/></svg>