<svg xmlns="http://www.w3.org/2000/svg" viewBox="0 0 24 24"><circle cx="21.953" cy="14.917" r=".002"/><path fill="#32648D" d="m18.991 14.727.002.002v.001l-.003.001c-.145.053-.265.075-.366.12a.45.45 0 0 0-.235.212l-.001.002c-.062.115-.116.319-.1.666q.064.045.142.069l.004.001c.169.052.452.086.768.081.63-.007 1.406-.156 1.818-.35.355-.169.659-.373.93-.615-1.376.288-2.153.211-2.63.012a1.3 1.3 0 0 1-.329-.202M17.58 4.151l.006.009.007.008zm-5.263 15.148-.001-.076-.001-.027zm-1.055-4.413a.6.6 0 0 0-.199-.06h-.003v-.002h-.021c-.052.005-.128.023-.276.188-.344.39-.464.635-.748.864s-.652.35-1.388.503a2 2 0 0 0-.455.144c.029.024.026.03.069.053.108.06.246.113.358.142.316.08.836.173 1.378.08.542-.094 1.106-.357 1.587-1.04.083-.118.092-.292.024-.479s-.22-.348-.326-.393M15.3 1.502l-.057.011.059-.01zM18.082 6.9c-.671.009-1.047.184-1.245.413-.28.325-.306.895-.132 1.597.173.703.53 1.489.866 2.142.168.327.331.621.462.86.132.24.229.41.288.555.054.134.115.252.176.362.26-.555.306-1.1.28-1.668-.034-.703-.196-1.422-.172-2.15.027-.851.193-1.405.207-2.063a5.5 5.5 0 0 0-.73-.048m.124.506-.001.008v.01q0 .07-.036.126l.001-.001a.7.7 0 0 1-.109.15.66.66 0 0 1-.377.211l-.004.001a.58.58 0 0 1-.407-.104l.002.001a.6.6 0 0 1-.127-.117l-.001-.001a.26.26 0 0 1-.062-.125v-.002l-.001-.015q.001-.066.043-.113a.4.4 0 0 1 .114-.089l.002-.001c.095-.054.223-.094.368-.116a1 1 0 0 1 .158-.013v.003h.049a1 1 0 0 1 .178.022.4.4 0 0 1 .136.055.17.17 0 0 1 .074.11M7.077 11.307q0-.27.04-.529l-.002.019c.102-.739.116-1.43.104-1.976-.012-.532-.05-.886-.05-1.107V7.69l-.001-.006v-.006c0-1.184.208-2.319.585-3.372.277-.744.689-1.499 1.306-2.111-.607-.202-1.683-.51-2.849-.568a7 7 0 0 0-.374-.01h-.001v.001q-.188 0-.375.011c-.998.058-1.942.351-2.616 1.075-.676.724-1.121 1.911-1.024 3.876.019.372.179 1.414.453 2.652.275 1.238.662 2.695 1.128 3.982.467 1.287 1.033 2.407 1.571 2.937.271.265.506.372.719.363.214-.01.472-.135.787-.518a43 43 0 0 1 1.808-2.069l-.02.021a3.5 3.5 0 0 1-1.189-2.641"/><path fill="#32648D" d="M12.396 1.568v-.002c-1.168.003-2.005.36-2.641.895-.655.553-1.094 1.31-1.383 2.085-.343.92-.46 1.81-.507 2.414l.013-.008c.353-.2.816-.4 1.312-.516s1.03-.151 1.514.039.884.637 1.029 1.315c.695 3.257-.216 4.468-.552 5.382a9 9 0 0 0-.311.946l-.016.067c.042-.01.085-.022.127-.026.237-.02.423.06.533.108.338.142.57.44.695.78q.05.134.07.284.02.052.02.115v.012a54 54 0 0 0 .014 3.765c.023.526.056.992.097 1.359.043.374.103.657.141.753.126.32.311.739.645 1.024.334.284.813.474 1.688.284.759-.165 1.227-.394 1.54-.723s.499-.787.618-1.488c.179-1.05.538-4.095.582-4.668-.02-.432.043-.764.18-1.017.14-.26.358-.419.545-.505.094-.043.182-.072.254-.093a6 6 0 0 0-.249-.336l.009.011a4.5 4.5 0 0 1-.647-1.07l-.011-.029a8 8 0 0 0-.275-.522l.021.039c-.131-.24-.297-.54-.471-.877-.348-.675-.726-1.493-.923-2.29-.196-.796-.224-1.62.278-2.201.444-.516 1.225-.73 2.396-.61-.034-.105-.055-.192-.114-.332a8 8 0 0 0-1.035-1.772c-.993-1.282-2.598-2.551-5.076-2.592zm-.774 15.098v.035zM7.851 7.77l.002-.001.003-.003z"/><path fill="#32648D" d="m9.321 7.093.01-.001.008-.003zm.726.298h-.002zm.513 5.546c.401-1.094 1.19-1.892.526-5.006-.109-.51-.324-.716-.62-.832a1.4 1.4 0 0 0-.486-.084h-.034.002a2.7 2.7 0 0 0-.617.077 4.6 4.6 0 0 0-1.134.448c-.129.071-.24.145-.344.228l-.019.018c.006.146.034.5.046 1.021a13 13 0 0 1-.111 2.084c-.236 1.71.99 3.126 2.43 3.128.085-.351.223-.707.361-1.082m-.851-4.969a.7.7 0 0 1-.116-.161l-.002-.004a.28.28 0 0 1-.039-.178v.001c.015-.108.103-.164.188-.195a.8.8 0 0 1 .305-.04l-.001-.004q.079 0 .164.013c.151.021.286.062.388.122a.5.5 0 0 1 .13.105l.001.001q.053.06.054.147l-.001.024v-.001a.3.3 0 0 1-.074.154.7.7 0 0 1-.139.129l-.002.001a.62.62 0 0 1-.445.113h.003a.7.7 0 0 1-.414-.227"/><path fill="#32648D" d="m8.177 7.55.02-.01.003-.002zm9.938-3.798a8.4 8.4 0 0 1 1.097 1.865l.021.055c.109.264.182.487.223.66.021.087.035.16.04.236a.4.4 0 0 1-.012.144c0 .003-.005.01-.006.013.03.876-.185 1.47-.21 2.306-.02.606.133 1.318.171 2.095.036.73-.051 1.532-.52 2.319q.058.072.113.144c1.239-1.975 2.132-4.16 2.608-6.023.255-1.003.39-1.912.402-2.632.01-.72-.123-1.242-.291-1.46-1.326-1.716-3.119-2.153-4.623-2.165v.001h-.144a8.6 8.6 0 0 0-1.681.193c1.228.552 2.158 1.402 2.812 2.249"/><path d="M12.561.258h-.01c-1.164-.02-2.163.266-2.97.742C8.787.721 7.14.24 5.403.336 4.194.403 2.874.775 1.896 1.82.921 2.865.406 4.482.514 6.682c.03.607.201 1.597.484 2.879.284 1.282.682 2.783 1.179 4.152s1.041 2.6 1.892 3.436c.425.419 1.01.771 1.699.742.484-.02.921-.235 1.299-.552.184.245.38.352.559.451.225.125.444.21.671.266.408.103 1.106.241 1.924.1a3.6 3.6 0 0 0 .864-.27c.011.33.024.653.036.98.041 1.036.066 1.993.373 2.832.049.137.185.843.718 1.466.533.624 1.579 1.013 2.769.755.84-.182 1.907-.51 2.617-1.532.701-1.01 1.017-2.459 1.08-4.809.016-.127.035-.235.054-.336l.167.015h.02c.896.041 1.868-.088 2.68-.47.719-.337 1.263-.678 1.66-1.283.099-.15.207-.331.237-.643s-.147-.8-.441-1.025c-.588-.452-.957-.28-1.353-.197a6 6 0 0 1-1.179.146h-.008c1.142-1.947 1.961-4.015 2.428-5.845.277-1.08.432-2.076.444-2.947s-.057-1.642-.573-2.309C21.203.6 18.938.024 17.185.004q-.082-.002-.163-.001V0a10 10 0 0 0-2.741.409l-.041.014a10.4 10.4 0 0 0-1.679-.165m2.369.637a9 9 0 0 1 2.04-.251h.006l.001-.004c1.658-.016 3.775.455 5.296 2.422.342.442.444 1.088.432 1.884s-.158 1.747-.424 2.79c-.516 2.02-1.49 4.375-2.862 6.488a.7.7 0 0 0 .151.084l.005.002c.286.12.939.223 2.242-.048.328-.07.568-.117.817.075a.52.52 0 0 1 .182.397l-.001.03v-.001a.7.7 0 0 1-.129.336c-.252.383-.749.746-1.385 1.045-.564.266-1.373.405-2.09.413-.36.004-.691-.024-.973-.113l-.018-.007c-.109 1.06-.359 3.153-.522 4.108-.13.77-.358 1.382-.794 1.84-.435.458-1.05.734-1.878.914-1.025.223-1.773-.017-2.255-.428-.481-.41-.701-.954-.834-1.287-.091-.23-.138-.528-.184-.926s-.079-.885-.102-1.434a49 49 0 0 1-.034-1.873q0-.325.004-.65a3 3 0 0 1-1.515.757l-.018.003c-.681.117-1.288.002-1.651-.09a2.2 2.2 0 0 1-.519-.204c-.166-.09-.324-.193-.43-.394a.56.56 0 0 1-.055-.382.6.6 0 0 1 .214-.328l.001-.001c.196-.161.454-.251.845-.333.71-.148.958-.249 1.109-.37.128-.104.274-.314.53-.622l-.003-.038v-.003A2.9 2.9 0 0 1 8.8 14.33l.015.008c-.148.158-.905.968-1.827 2.092-.388.47-.817.74-1.269.759s-.861-.211-1.209-.552c-.695-.683-1.249-1.858-1.732-3.186s-.874-2.807-1.153-4.067c-.28-1.26-.444-2.276-.468-2.766-.104-2.082.377-3.485 1.202-4.37.826-.885 1.958-1.22 3.061-1.284 1.981-.115 3.861.584 4.242.734.734-.504 1.679-.818 2.858-.798a7.3 7.3 0 0 1 1.711.229l-.05-.011.02-.009c.191-.072.435-.145.685-.205z"/></svg>